<svg xmlns="http://www.w3.org/2000/svg" viewBox="0 0 200 200">
  <defs>
    <radialGradient id="skin" cx="50%" cy="30%" r="60%">
      <stop offset="0%" stop-color="#8a9ba8"/>
      <stop offset="100%" stop-color="#5d6d7e"/>
    </radialGradient>
    <radialGradient id="eye" cx="50%" cy="50%" r="50%">
      <stop offset="0%" stop-color="#0a0a0a"/>
      <stop offset="100%" stop-color="#000"/>
    </radialGradient>
  </defs>
  <path d="M100,20 C145,20 170,60 170,110 C170,155 130,180 100,180 C70,180 30,155 30,110 C30,60 55,20 100,20" fill="url(#skin)" stroke="#b96eff" stroke-width="1" opacity="0.9"/>
  <ellipse cx="65" cy="80" rx="22" ry="28" fill="url(#eye)"/>
  <ellipse cx="135" cy="80" rx="22" ry="28" fill="url(#eye)"/>
  <ellipse cx="60" cy="72" rx="4" ry="5" fill="#3a8bd9" opacity="0.6"/>
  <ellipse cx="130" cy="72" rx="4" ry="5" fill="#3a8bd9" opacity="0.6"/>
  <ellipse cx="95" cy="110" rx="3" ry="2" fill="#4a5568"/>
  <ellipse cx="105" cy="110" rx="3" ry="2" fill="#4a5568"/>
  <path d="M85,135 Q100,145 115,135" stroke="#4a5568" stroke-width="1.5" fill="none"/>
  <ellipse cx="28" cy="95" rx="4" ry="6" fill="#4a5568" opacity="0.5"/>
  <ellipse cx="172" cy="95" rx="4" ry="6" fill="#4a5568" opacity="0.5"/>
</svg>