<svg xmlns="http://www.w3.org/2000/svg" viewBox="0 0 200 200">
  <defs>
    <radialGradient id="nordicSkin" cx="50%" cy="30%" r="60%">
      <stop offset="0%" stop-color="#fef6e4"/>
      <stop offset="100%" stop-color="#f5e6c8"/>
    </radialGradient>
    <linearGradient id="hair" x1="0%" y1="0%" x2="0%" y2="100%">
      <stop offset="0%" stop-color="#f0e68c"/>
      <stop offset="100%" stop-color="#daa520"/>
    </linearGradient>
    <radialGradient id="blueEye" cx="50%" cy="50%" r="50%">
      <stop offset="0%" stop-color="#4a90d9"/>
      <stop offset="100%" stop-color="#1e3a5f"/>
    </radialGradient>
  </defs>
  <ellipse cx="100" cy="115" rx="55" ry="70" fill="url(#nordicSkin)" stroke="#b96eff" stroke-width="1" opacity="0.8"/>
  <path d="M45,50 Q60,30 100,25 Q140,30 155,50 Q165,70 155,100 Q145,120 100,125 Q55,120 45,100 Z" fill="url(#hair)" opacity="0.95"/>
  <ellipse cx="68" cy="95" rx="16" ry="18" fill="url(#blueEye)"/>
  <ellipse cx="132" cy="95" rx="16" ry="18" fill="url(#blueEye)"/>
  <ellipse cx="65" cy="90" rx="5" ry="6" fill="#fff" opacity="0.8"/>
  <ellipse cx="129" cy="90" rx="5" ry="6" fill="#fff" opacity="0.8"/>
  <path d="M95,115 Q100,128 105,115" stroke="#d4c4a0" stroke-width="1.5" fill="none"/>
  <ellipse cx="100" cy="145" rx="18" ry="6" fill="#d9a5a5" opacity="0.7"/>
</svg>